<?xml version="1.0" encoding="utf-8"?>
<!-- Generator: Adobe Illustrator 16.0.0, SVG Export Plug-In . SVG Version: 6.00 Build 0)  -->
<!DOCTYPE svg PUBLIC "-//W3C//DTD SVG 1.1//EN" "http://www.w3.org/Graphics/SVG/1.1/DTD/svg11.dtd">
<svg version="1.1" id="Main" xmlns="http://www.w3.org/2000/svg" xmlns:xlink="http://www.w3.org/1999/xlink" x="0px" y="0px"
	 width="355.914px" height="141.732px" viewBox="0 0 355.914 141.732" enable-background="new 0 0 355.914 141.732"
	 xml:space="preserve">
<path fill="#010101" d="M165.234,58.557c1.875,14.461-13.072,43.344-34.064,46.667l-0.695,1.819c-0.33,1.041-0.82,1.371-1.344,1.438
	c-1.57,0.204-6.146-1.73-6.393-3.629c8.512-17.47,14.309-45.102,14.664-48.008c0.229-1.826,2.189-2.613,3.629-2.8
	c1.309-0.17,2.488,0.21,3.73,0.048c4.516-0.585,8.227-3.262,10.582-3.567C161.43,49.735,164.529,53.126,165.234,58.557z
	 M152.203,59.648c-1.439,0.187-3.232,1.75-5.006,3.976c-4.461,8.695-9.803,24.958-13.877,36.131
	c13.602-5.424,22.475-27.799,21.252-37.221C154.285,60.31,153.381,59.495,152.203,59.648z"/>
<path fill="#010101" d="M224.838,50.851c0.02,0.149,1.686,4.879-3.981,5.822c-4.718,0.785-15.964,3.304-20.099,3.954
	c-5.6,11.704-12.947,27.895-12.465,31.624c0.086,0.653,0.332,1.021,0.855,0.953c0.395-0.051,1.014-0.398,1.797-1.031
	c0.961-0.791,4.033-3.784,6.438-7.821c1.617-2.406,7.002-11.154,7.967-12.943c0.162-0.287,0.277-0.435,0.473-0.46
	c0.59-0.077,1.143,1.116,1.143,1.116c-1.4,3.043-4.613,9.047-7.625,14.561c-1.721,3.151-5.354,8.479-7.643,10.839
	c-0.473,0.461-0.971,0.725-1.625,0.81c-2.748,0.356-6.705-2.457-7.086-5.401c-0.621-4.776,4.672-19.367,9.012-31.042l-1.832,0.237
	c-5.574-0.255-5.547-1.741-5.803-3.704c-0.17-1.309,0.152-2.415,0.545-2.466c2.848-0.104,6.201-0.405,9.67-0.855
	c1.342-3.501,2.311-6.288,2.648-7.795c0.393-1.581,1.789-2.095,2.902-2.239c1.963-0.255,5.482,1.75,5.771,3.975
	c0.076,0.589-0.043,1.203-0.254,1.63c-0.422,0.854-0.957,1.854-1.477,2.985L224.838,50.851z"/>
<path fill="#010101" d="M211.347,90.031c-2.398,3.571-5.145,5.99-6.912,6.219c-2.877,0.374-5.799-1.111-6.197-4.186
	c-1.273-9.814,6.018-29.522,17.467-31.008c3.795-0.492,5.361,1.833,5.666,4.188c0.281,2.159-0.504,4.323-1.615,4.467
	c-0.197,0.025-0.467-0.006-0.736-0.037c-1.154-0.182-2.227-0.243-3.209-0.116c-9.553,1.239-13.525,16.26-12.924,20.904
	c0.111,0.852,0.375,1.349,0.832,1.289c3.926-0.51,9.256-16.308,9.645-22.545c0.693-0.29,1.406-0.448,2.125-0.542
	c2.813-0.365,5.705-4.794,5.883-3.42c0.033,0.262,0.606,3.183-0.736,6.678c-0.861,2.242-4.955,12.023-4.631,14.511
	c0.152,1.178,1.242,1.369,1.635,1.318c1.373-0.179,4.668-3.006,5.229-3.81c0,0,0.09,0.191,0.217,1.172
	c0.051,0.394-0.02,0.869-0.344,1.442c-2.248,4.217-5.143,6.522-7.434,6.82C213.343,93.631,211.874,92.558,211.347,90.031z"/>
<path fill="#010101" d="M259.383,83.671c-2.398,3.571-5.145,5.99-6.912,6.219c-2.877,0.374-5.799-1.111-6.197-4.186
	C245,75.89,252.291,56.182,263.74,54.696c3.795-0.492,5.361,1.833,5.666,4.188c0.281,2.159-0.504,4.323-1.615,4.467
	c-0.197,0.025-0.467-0.006-0.736-0.037c-1.154-0.182-2.227-0.243-3.209-0.116c-9.553,1.239-13.525,16.26-12.924,20.904
	c0.111,0.852,0.375,1.349,0.832,1.289c3.926-0.51,9.256-16.308,9.645-22.545c0.693-0.29,1.406-0.448,2.125-0.542
	c2.813-0.365,5.705-4.794,5.883-3.42c0.033,0.262,0.606,3.183-0.736,6.678c-0.861,2.242-4.955,12.023-4.631,14.511
	c0.152,1.178,1.242,1.369,1.635,1.318c1.373-0.179,4.668-3.006,5.229-3.81c0,0,0.09,0.191,0.217,1.172
	c0.051,0.394-0.02,0.869-0.344,1.442c-2.248,4.217-5.143,6.522-7.434,6.82C261.379,87.271,259.91,86.197,259.383,83.671z"/>
<path fill="#010101" d="M172.841,95.189c-2.398,3.571-5.145,5.99-6.912,6.219c-2.877,0.374-5.799-1.111-6.197-4.186
	c-1.273-9.814,6.018-29.522,17.467-31.008c3.795-0.492,5.361,1.833,5.666,4.188c0.281,2.159-0.504,4.323-1.615,4.467
	c-0.197,0.025-0.467-0.006-0.736-0.037c-1.154-0.182-2.227-0.243-3.209-0.116c-9.553,1.239-13.525,16.26-12.924,20.904
	c0.111,0.852,0.375,1.349,0.832,1.289c3.926-0.51,9.256-16.308,9.645-22.545c0.693-0.29,1.406-0.448,2.125-0.542
	c2.813-0.365,5.705-4.794,5.883-3.42c0.033,0.262,0.606,3.183-0.736,6.678c-0.861,2.242-4.955,12.023-4.631,14.511
	c0.152,1.178,1.242,1.369,1.635,1.318c1.373-0.179,4.668-3.006,5.229-3.81c0,0,0.09,0.191,0.217,1.172
	c0.051,0.394-0.02,0.869-0.344,1.442c-2.248,4.217-5.143,6.522-7.434,6.82C174.837,98.789,173.368,97.716,172.841,95.189z"/>
<path fill="#010101" d="M228.096,92.786c-0.209,0.958-0.615,1.41-1.205,1.487c-1.113,0.144-5.855-2.567-6.025-3.876
	c-0.076-0.589,0.035-1.269,0.213-1.958c1.055-3.662,3.395-10.753,5.824-18.187c-2.068-1.062-2.598-2.59-2.811-4.226
	c-0.094-0.72,0.266-1.033,0.789-1.101c0.719-0.094,2.176-0.149,3.828-0.23c3.1-9.45,5.75-18.244,5.504-20.142
	c-0.051-0.393-0.422-1.209-0.482-1.667c-0.068-0.523,0.143-0.95,1.426-1.316c3.064-0.996,25.229-4.552,28.043-4.917
	c1.504-0.195,2.152,0.187,2.221,0.71c0.086,0.654-2.723,6.851-3.809,7.59c-0.272,0.186-16.752,2.189-18.48,3.744
	c-0.82,1.371-3.095,10.74-4.386,14.633c0.092,0.72,12.185-1.956,12.22-1.693c0.029,0.239-1.991,4.114-3.508,6.932
	c-0.803,1.49-9.48,3.08-11.509,2.983C235.948,71.553,228.896,89.223,228.096,92.786z"/>
<path fill="#010101" d="M277.422,56.874c1.963-0.255,5.188,1.521,5.477,3.746c0.076,0.589-0.045,1.203-0.254,1.631
	c-3.844,7.816-7.094,16.621-6.924,17.93c0.076,0.589,0.334,1.021,0.725,0.971c0.133-0.017,0.254-0.101,0.434-0.257
	c0.652-0.616,3.396-3.566,5.961-7.892c1.619-2.406,7.004-11.154,7.969-12.943c0.162-0.287,0.277-0.435,0.473-0.46
	c0.59-0.077,1.143,1.116,1.143,1.116c-1.402,3.043-4.615,9.047-7.625,14.561c-1.721,3.151-4.773,8.338-6.988,10.754
	c-0.52,0.601-1.084,0.873-1.674,0.949c-2.748,0.356-5.766-4.441-6.154-7.451c-0.545-4.188,2.979-13.96,4.535-20.416
	C274.912,57.531,276.309,57.019,277.422,56.874z"/>
<path fill="#EE589F" d="M280.518,43.962c2.943-0.382,5.551,2.274,5.771,3.976s-1.627,5.933-3.393,6.161
	c-2.225,0.289-6.563-1.344-6.826-3.372C275.773,48.437,277.965,44.293,280.518,43.962z"/>
<path fill="#010101" d="M289.518,62.596c-3.201-0.581-4.666-2.122-4.904-3.954c-0.441-3.402,3.703-7.865,9.322-8.661
	c1.701-0.221,2.377,0.89,2.547,2.199c0.246,1.896-0.494,4.388-0.625,4.404c2.01,1.137,6.828,0.845,7.15,3.33
	c0.076,0.589-0.1,1.278-0.578,2.204c-1.844,3.233-7.547,12.091-6.986,16.408c0.102,0.786,0.471,1.07,0.863,1.02
	c0.459-0.06,0.996-0.529,1.453-1.119c0.576-0.674,3.645-4.731,5.871-8.08c1.617-2.406,7.002-11.155,7.967-12.944
	c0.162-0.287,0.277-0.435,0.473-0.46c0.59-0.076,1.143,1.117,1.143,1.117c-1.402,3.042-4.549,9.038-7.625,14.56
	c-2.418,4.439-8.213,13.109-12.334,13.644c-2.225,0.289-3.279-1.171-3.594-3.592c-0.67-5.17,2.045-14.504,3.943-19.873
	c-0.664,0.021-1.326,0.039-1.932-0.016c-0.672,1.485-3.938,7.098-4.264,7.141c-0.59,0.076-1.326,0.038-1.41-0.615
	c-0.043-0.328,0.076-0.942,0.572-1.738C287.18,66.625,288.584,64.115,289.518,62.596z"/>
<path fill="#010101" d="M309.094,53.47c0.314-1.171,2.273-1.958,4.367-2.229c2.291-0.298,4.73,0.051,4.91,1.426
	c0.533,4.121-9.807,18.771-9.205,23.416c0.094,0.72,0.463,1.003,1.053,0.927c2.027-0.263,6.344-4.947,8.783-11.784
	c2.672-9.66,3.879-14.208,4.457-16.412c0.395-1.582,1.791-2.096,2.902-2.24c1.963-0.255,5.074,1.672,5.363,3.896
	c0.076,0.588-0.045,1.202-0.254,1.629c-3.463,7.168-7.492,17.14-12.098,31.376c6.168-0.668,19.361-1.433,19.377-1.303
	c0.035,0.263-3.191,3.607-6.92,4.091c-0.523,0.068-1.178,0.153-1.971,0.19c-5.604,0.395-4.914,0.489-11.664,0.767
	c-2.475,8.105-6.635,10.906-10.627,11.424c-4.121,0.534-8.033-1.419-8.51-5.083c-0.688-5.3,5.086-7.979,14.295-9.306l2.104-6.859
	c-2.596,3.064-5.621,5.387-7.846,5.675c-1.57,0.204-2.746-0.643-3.059-3.063C303.566,72.416,308.178,57.183,309.094,53.47z
	 M312.273,87.72l-0.066,0.009c-4.775,0.619-7.855,2.018-7.516,4.635c0.195,1.505,1.371,2.883,2.877,2.688
	c1.309-0.17,2.791-1.56,3.994-5.108L312.273,87.72z"/>
<g>
	<path d="M249.531,112.258c-0.387,0.045-1.092-0.749-1.141-1.144c-0.025-0.167,0.012-0.304,0.072-0.466
		c0.152-0.353,0.844-2.149,1.049-2.614c0.025-0.052,0.039-0.104,0.035-0.14c-0.01-0.049-0.041-0.066-0.092-0.058
		c-0.949,0.123-2.764,2.275-2.596,3.624c0.166,1.322,1.994,2.728,2.227,4.592c0.172,1.385-0.816,2.103-2.061,2.26
		c-1.742,0.231-4.002-0.629-4.201-2.247c-0.029-0.267,0.1-0.802,0.422-0.846c0.078-0.009,0.164,0.016,0.275,0.114
		c0.551,0.481,1.754,1.433,2.814,1.292c0.26-0.032,0.645-0.115,0.6-0.478c-0.117-0.909-2.072-3.185-2.316-5.151
		c-0.232-1.875,2.09-6.104,4.74-6.451c0.498-0.064,1.115,0.014,1.398,0.727c0.572,0.245,1.236,1.113,1.326,1.809
		c0.027,0.245-0.021,0.486-0.07,0.625c-0.102,0.234-1.15,2.479-2.189,4.294C249.732,112.164,249.629,112.243,249.531,112.258"/>
	<path d="M254.203,111.246c-0.514,1.683-1.039,3.668-1.547,6.063c-0.076,0.367-0.258,0.533-0.52,0.571
		c-0.367,0.046-1.947-0.515-2.061-1.462c-0.014-0.129-0.006-0.252,0.027-0.385c1.078-3.981,5.203-11.279,4.713-15.348
		c-0.072-0.627-0.24-1.152-0.563-1.6c-0.094-0.163-0.18-0.253-0.191-0.354c-0.01-0.097,0.051-0.21,0.23-0.33
		c0.391-0.279,1.068-0.613,1.727-0.699c0.9-0.117,1.813,0.253,2.01,1.898c0.232,1.973-1.115,5.152-2.348,7.862
		c1.049-1.547,2.348-2.899,3.445-3.043c0.973-0.117,1.465,0.454,1.555,1.222c0.271,2.22-3.115,5.121-4.701,6.392
		c-0.598,0.378-0.629,0.936-0.584,1.283c0.123,1.022,1.869,2.983,3.633,2.808c0.033,0.104,0.049,0.229,0.061,0.348
		c0.086,0.731-0.188,1.744-1.258,1.883c-2.146,0.267-3.566-2.313-3.898-5.051c-0.107-0.904,0.895-1.612,0.895-1.612
		c1.309-1.049,3.283-3.6,3.207-4.196c-0.012-0.1-0.064-0.141-0.191-0.128C257.045,107.473,255.451,109.438,254.203,111.246"/>
	<path d="M261.613,104.923c-0.033-0.224-0.223-0.399-0.244-0.574c-0.066-0.551,1.82-1.068,2.238-1.118
		c0.711-0.091,1.324,0.082,1.41,0.806c0.152,1.222-3.275,7.525-3.002,9.792c0.094,0.777,0.418,1.413,1.068,1.891
		c0.105,0.09,0.17,0.183,0.18,0.256c0.051,0.477-0.455,0.974-1.111,1.05c-0.93,0.114-2.182-0.607-2.521-3.45
		C259.373,111.431,261.725,105.868,261.613,104.923 M264.482,98.535c1.09-0.136,2.057,0.881,2.137,1.524
		c0.08,0.65-0.619,2.256-1.275,2.343c-0.83,0.109-2.438-0.524-2.535-1.307C262.705,100.228,263.531,98.657,264.482,98.535"/>
	<path d="M266.748,113.082c0.031,0.224,0.121,0.388,0.271,0.374c0.047-0.012,0.09-0.036,0.158-0.102
		c0.248-0.23,1.275-1.348,2.24-2.982c0.609-0.917,2.637-4.233,2.998-4.912c0.061-0.109,0.105-0.165,0.176-0.169
		c0.223-0.03,0.424,0.424,0.424,0.424c-0.527,1.151-1.74,3.434-2.873,5.522c-0.652,1.198-1.795,3.162-2.631,4.08
		c-0.193,0.225-0.449,0.359-0.672,0.385c-1.045,0.135-2.195-1.6-2.332-2.745c-0.309-2.539,3.322-11.878,5.084-15.973
		c0.064-0.111,0.074-0.213,0.061-0.31c-0.033-0.301-0.314-0.549-0.336-0.72c-0.018-0.149,0.166-0.27,0.873-0.357
		c0.828-0.11,2.561,0.232,2.721,1.629c0.07,0.549-0.117,1.277-0.723,2.212C269.918,102.968,266.578,111.665,266.748,113.082"/>
	<path d="M272.188,112.398c0.027,0.222,0.119,0.389,0.273,0.374c0.043-0.006,0.084-0.04,0.156-0.1
		c0.244-0.236,1.271-1.349,2.238-2.987c0.609-0.912,2.637-4.228,3-4.907c0.059-0.112,0.102-0.167,0.176-0.176
		c0.221-0.027,0.42,0.43,0.42,0.43c-0.531,1.157-1.742,3.433-2.875,5.527c-0.65,1.19-1.795,3.159-2.627,4.068
		c-0.193,0.229-0.451,0.361-0.672,0.394c-1.045,0.127-2.193-1.602-2.334-2.74c-0.303-2.55,3.326-11.887,5.084-15.981
		c0.059-0.111,0.072-0.211,0.066-0.306c-0.041-0.309-0.318-0.548-0.344-0.721c-0.016-0.153,0.17-0.279,0.877-0.363
		c0.826-0.108,2.553,0.232,2.723,1.637c0.064,0.541-0.121,1.272-0.729,2.207C275.352,102.283,272.016,110.979,272.188,112.398"/>
	<path d="M277.537,111.219c-0.004,0.354,0.01,0.712,0.049,1.031c0.068,0.552,0.354,0.843,0.891,0.774
		c1.68-0.21,3.387-2.268,4.791-4.401c0.605-0.907,2.639-4.226,3-4.901c0.061-0.11,0.102-0.168,0.174-0.173
		c0.219-0.027,0.424,0.424,0.424,0.424c-0.531,1.154-1.719,3.409-2.875,5.527c-1.4,2.553-3.5,4.841-5.039,5.035
		c-0.928,0.115-3.412-1.014-3.641-2.911c-0.453-3.732,2.344-9.734,5.002-10.064c0.826-0.105,1.137,1.194,1.928,1.603
		c0.523,0.265,1.467,0.27,1.619,1.541C284.002,105.9,279.504,109.833,277.537,111.219 M281.594,104.611
		c-0.076-0.016-0.176-0.028-0.252-0.021c-1.65,0.639-3.043,2.862-3.563,5.133C280.502,107.278,281.244,105.612,281.594,104.611"/>
	<path d="M285.688,104.671c-1.189-0.225-1.73-0.811-1.814-1.509c-0.158-1.297,1.398-2.989,3.492-3.275
		c0.635-0.079,0.881,0.343,0.941,0.842c0.084,0.726-0.193,1.674-0.244,1.678c0.746,0.436,2.541,0.341,2.648,1.287
		c0.037,0.224-0.035,0.482-0.215,0.833c-0.693,1.229-2.838,4.587-2.641,6.232c0.035,0.298,0.168,0.41,0.316,0.393
		c0.172-0.025,0.373-0.206,0.541-0.429c0.223-0.251,1.371-1.792,2.207-3.058c0.609-0.912,2.639-4.231,2.998-4.908
		c0.061-0.104,0.107-0.167,0.18-0.172c0.217-0.028,0.424,0.424,0.424,0.424c-0.527,1.159-1.719,3.43-2.877,5.525
		c-0.914,1.684-3.088,4.97-4.627,5.165c-0.826,0.101-1.215-0.461-1.324-1.38c-0.242-1.969,0.793-5.515,1.512-7.558
		c-0.248,0.011-0.49,0.017-0.719-0.007c-0.254,0.56-0.652,1.368-1.365,2.649c0,0-0.111,0.041-0.236,0.061
		c-0.219,0.021-0.498,0.011-0.523-0.241c-0.02-0.126,0.027-0.359,0.217-0.666C284.807,106.208,285.336,105.252,285.688,104.671"/>
	<path d="M228.779,105.216c0.656,5.473-4.945,16.367-12.723,17.571l-0.264,0.685c-0.121,0.394-0.305,0.518-0.498,0.544
		c-0.584,0.072-2.273-0.672-2.357-1.39c3.195-6.592,5.406-17.031,5.547-18.13c0.088-0.692,0.818-0.982,1.35-1.052
		c0.484-0.057,0.92,0.085,1.379,0.025c1.672-0.206,3.049-1.209,3.926-1.318C227.389,101.868,228.533,103.162,228.779,105.216
		 M223.953,105.595c-0.533,0.068-1.203,0.653-1.865,1.491c-1.672,3.278-3.684,9.413-5.223,13.64
		c5.047-2.018,8.387-10.467,7.957-14.033C224.721,105.848,224.389,105.539,223.953,105.595"/>
	<path d="M228.783,118.371c-0.004,0.354,0.012,0.704,0.049,1.021c0.068,0.551,0.346,0.833,0.879,0.772
		c1.674-0.211,3.369-2.26,4.764-4.374c0.605-0.908,2.623-4.205,2.982-4.875c0.063-0.11,0.105-0.159,0.174-0.177
		c0.221-0.026,0.42,0.43,0.42,0.43c-0.525,1.148-1.709,3.38-2.854,5.492c-1.393,2.533-3.484,4.811-5.01,5.003
		c-0.922,0.113-3.395-1.007-3.617-2.888c-0.447-3.712,2.33-9.676,4.969-10.012c0.826-0.104,1.129,1.192,1.916,1.591
		c0.521,0.269,1.457,0.271,1.611,1.538C235.209,113.082,230.734,116.988,228.783,118.371 M232.816,111.796
		c-0.078-0.013-0.178-0.025-0.246-0.017c-1.648,0.639-3.029,2.849-3.549,5.102C231.732,114.453,232.467,112.796,232.816,111.796"/>
	<path d="M244.229,109.157c-0.896,4.364-5.018,10.75-6.178,10.893c-0.559,0.077-2.447-0.268-2.578-1.389
		c-0.217-1.78,0.771-11.186,2.949-11.46c0.607-0.076,1.98,0.481,2.07,1.251c0.053,0.444-3.607,6.418-3.195,9.833
		c0.004,0.052,0.033,0.071,0.059,0.071c0.773-0.098,3.674-3.54,3.857-9.78c0,0,0.076-0.786,0.088-1.158
		c0.012-0.72,0.219-0.989,0.893-1.075C242.824,106.266,244.533,106.266,244.229,109.157"/>
</g>
<g>
	<path fill="#010101" d="M192.882,120.882l1.376-11.298h1.832l-0.615,5.041c0.365-0.512,0.771-0.917,1.22-1.217
		c0.449-0.299,0.927-0.448,1.434-0.448c0.324,0,0.619,0.06,0.886,0.179c0.266,0.119,0.493,0.298,0.681,0.536
		s0.331,0.539,0.433,0.904s0.152,0.793,0.152,1.285c0,0.44-0.046,0.874-0.137,1.3c-0.092,0.426-0.221,0.829-0.388,1.209
		s-0.366,0.729-0.597,1.049s-0.488,0.596-0.771,0.829c-0.284,0.233-0.587,0.415-0.909,0.547c-0.321,0.132-0.655,0.198-1,0.198
		c-0.4,0-0.756-0.08-1.067-0.239c-0.313-0.16-0.574-0.377-0.787-0.65l-0.061,0.259c-0.041,0.182-0.109,0.313-0.206,0.395
		c-0.096,0.082-0.248,0.122-0.456,0.122H192.882z M197.397,114.435c-0.207,0-0.418,0.071-0.631,0.213
		c-0.213,0.143-0.419,0.337-0.619,0.586c-0.2,0.248-0.386,0.541-0.555,0.878c-0.17,0.337-0.316,0.698-0.438,1.083l-0.229,1.863
		c0.173,0.188,0.37,0.319,0.594,0.395c0.223,0.076,0.443,0.114,0.661,0.114c0.334,0,0.639-0.104,0.912-0.312
		s0.508-0.479,0.703-0.813s0.346-0.711,0.452-1.129s0.16-0.838,0.16-1.259c0-0.547-0.089-0.954-0.267-1.22
		C197.966,114.567,197.717,114.435,197.397,114.435z"/>
	<path fill="#010101" d="M203.427,123.041c-0.132,0.259-0.334,0.388-0.608,0.388h-1.391l1.733-3.14l-1.97-7.208h1.574
		c0.137,0,0.239,0.034,0.308,0.104c0.068,0.068,0.115,0.15,0.141,0.247l0.958,4.044c0.03,0.132,0.055,0.262,0.072,0.388
		c0.018,0.127,0.032,0.256,0.042,0.388c0.056-0.132,0.112-0.262,0.171-0.392c0.059-0.129,0.118-0.26,0.179-0.392l1.924-4.044
		c0.051-0.102,0.124-0.184,0.221-0.247c0.096-0.063,0.194-0.096,0.296-0.096h1.506L203.427,123.041z"/>
</g>
<g>
	<g>
		<path fill="#201F21" d="M43.556,114.741c0,0,0.112,9.333,2.853,11.191c2.721,1.831,12.5,0.839,15.124-1.986
			c2.634-2.812-1.382-11.375-1.382-11.375L43.556,114.741z"/>
		<path fill="#201F21" d="M79.826,107.663c0,0,3.177,8.476,1.357,11.15c-1.817,2.677-10.998,5.325-14.366,3.745
			c-3.353-1.572-2.723-10.777-2.723-10.777l2.24-6.123L79.826,107.663z"/>
		<path fill="#837460" d="M79.984,71.191c11.77-9.114,17.911-19.966,22.568-29.325c2.268-4.545,7.776,1.161,6.267,9.141
			c-0.563,2.994-2.079,7.032-5.169,8.175c5.391-1.712,12.219-0.586,10.207,5.985c-1.42,4.602-8.752,6.401-12.84,6.725
			c3.996,0.609,8.211,3.894,6.859,7.096c-3.084,7.387-15.425,7.094-21.246,6.621c1.286,1.768,3.738,10.161-19.96,3.892
			c-0.967-0.251-14.385,2.474-15.486-0.423c-1.281-3.403,1.137-4.237,3.153-5.087c11.266-4.771,17.466-6.503,25.617-12.799H79.984z"
			/>
		<path fill="#A99781" d="M101.828,43.335c2.203-0.25,4.912,3.989,3.874,9.507c-0.493,2.631-5.034,7.717-7.745,8.68
			c4.751-1.514,12.094-2.212,10.299,3.579c-1.259,4.054-12.562,6.338-16.182,6.662c4.37,1.903,12.647,3.255,11.49,6.09
			c-2.465,5.91-16.081,5.498-21.211,5.081c1.122,1.535,7.109,9.39-13.796,3.859c-0.838-0.221-13.749,2.519-14.726-0.026
			c-0.404-1.093-0.254-1.906,0.195-2.576l0.371-0.158c11.273-4.772,17.471-6.515,25.616-12.82
			c11.153-8.626,17.255-18.823,21.848-27.835L101.828,43.335z"/>
		<path fill="#9F8A73" d="M100.326,46.274c0.659,1.712,0.974,3.988,0.498,6.465c-0.498,2.633-4.473,8.794-10.892,12.387
			c6.104-1.274,13.411-3.091,11.549-0.065c-2.201,3.604-14.726,6.144-18.348,6.442c4.382,1.904,15.769,3.679,14.234,6.35
			C94.65,82.51,79.826,81.396,74.7,80.966c4.945,1.997,10.044,7.541-6.702,4.189c-0.343-0.074-13.757,3.277-13.6-1.123
			c11.273-4.772,17.471-6.515,25.616-12.828c9.986-7.676,15.902-16.668,20.333-24.93H100.326z"/>
		<path fill="#837460" d="M47.854,97.319c0.602-0.479-0.284-1.9-2.58-2.027c-12.908-0.678-24.674-1.255-27.951,2.511
			c-4.249,4.896,1.041,6.858,8.308,6.887c7.114,0.036,17.569-3.547,22.259-7.406L47.854,97.319z"/>
		<path fill="#9F8A73" d="M44.799,99.029c0.284-0.263-0.125-0.94-1.268-1.006c-6.356-0.331-19.225,0.543-20.851,2.418
			c-2.115,2.414,0.495,3.37,4.084,3.37C30.262,103.854,42.494,100.886,44.799,99.029"/>
		<path fill="#837460" d="M48.921,98.737c0.401-0.714-1.13-1.604-3.583-0.714c-13.671,5.059-26.157,9.698-27.859,14.556
			c-2.232,6.3,4.153,5.736,11.673,2.587C36.555,112.099,45.772,104.267,48.921,98.737"/>
		<path fill="#9F8A73" d="M45.899,101.849c0.19-0.343-0.562-0.8-1.787-0.343c-6.896,2.54-19.611,8.619-20.503,11.065
			c-1.127,3.198,2.085,2.905,5.891,1.321C33.242,112.349,44.295,104.661,45.899,101.849"/>
		<path fill="#837460" d="M49.995,99.972c0.057-0.785-1.516-1.135-3.21,0.47c-9.504,8.908-18.172,17.125-17.851,22.14
			c0.441,6.54,5.516,4.023,10.642-1.226c5-5.145,9.821-15.284,10.449-21.384H49.995z"/>
		<path fill="#9F8A73" d="M48.161,104.238c0.032-0.427-0.816-0.607-1.753,0.249c-5.159,4.862-12.874,13.521-12.691,16.269
			c0.222,3.539,2.994,2.186,5.787-0.686c2.75-2.789,8.35-12.518,8.657-15.874V104.238z"/>
		<path fill="#FFCC07" d="M53.956,95.954L53.05,95.77c-0.315,0.028-3.281,16.776-3.367,18.065c-3.593,0.25-5.481,4.21-5.665,6.818
			c-0.094,1.201,0.378,2.571,1.53,3.094c1.267,0.548,3.438,0.179,3.724-2.451c1.002,2.064,3.649,4.637,6.322,3.448
			c1.894-0.842,2.454-3.417,1.29-4.961c2.982,1.801,9.314-3.54-1.193-6.249C56.824,109.224,56.663,96.548,53.956,95.954"/>
		<path fill="#FFCC07" d="M69.474,93.015h-0.956c-0.292,0.086,0.032,17.097,0.19,18.388c-3.91,1.063-4.777,6.336-4.053,8.726
			c0.311,0.991,1.344,1.827,2.351,1.852c1.298,0.038,2.946-0.816,2.726-3.179c1.381,1.819,4.483,3.796,6.878,2.09
			c1.684-1.213,1.738-3.815,0.299-5.101c3.279,1.156,8.427-5.352-2.368-5.873c0.271-4.451-2.333-16.83-5.116-16.858L69.474,93.015z"
			/>
		<path fill="#837460" d="M48.078,108.997c1.223,0.886,5.063,2.397,8.746,2.039c3.866-0.355,6.804-0.942,9.692-2.607
			c4.217-2.449,10.265-16.973,12.783-25.824c1.034-3.638-0.793-6.783-4.503-7.819c-10.301-2.808-23.985-2.118-33.3,0.065
			c-4.594,1.091-6.553,5.243-5.792,9.245c1.854,9.845,4.852,19.666,12.373,24.873V108.997z"/>
		<path fill="#9F8A73" d="M49.556,108.455c1.04,0.842,4.276,2.278,7.393,1.967c3.276-0.328,5.729-0.914,8.184-2.522
			c3.585-2.355,8.688-16.411,10.796-24.966c0.889-3.547-0.66-6.593-3.807-7.569c-8.69-2.697-20.27-2.056-28.143,0.07
			c-3.908,1.049-5.533,5.08-4.898,8.938c1.568,9.521,4.08,19.039,10.444,24.082H49.556z"/>
		<path fill="#837460" d="M43.318,90.34c0.245-0.057,1.48-2.612,1.287-4.479c-0.018-0.221-0.471-1.64-1.311-1.64
			c-0.854,0-1.384,1.325-1.43,1.575c-0.217,1.997,1.198,4.487,1.489,4.487L43.318,90.34z M69.973,90.34
			c-0.241-0.057-1.472-2.612-1.28-4.479c0.032-0.221,0.47-1.64,1.313-1.64c0.859,0,1.395,1.325,1.424,1.575
			c0.225,1.997-1.191,4.487-1.478,4.487L69.973,90.34z M43.511,99.505c0.249,0,1.352-2.408,1.163-4.127
			c-0.036-0.18-0.404-1.506-1.217-1.506c-0.796,0-1.296,1.228-1.33,1.477c-0.216,1.847,1.102,4.187,1.352,4.156H43.511z
			 M69.791,99.505c-0.252,0-1.352-2.408-1.165-4.127c0.034-0.18,0.406-1.506,1.223-1.506c0.799,0,1.298,1.228,1.332,1.477
			c0.22,1.847-1.1,4.187-1.357,4.156H69.791z M47.036,104.624c0.227,0,1.231-2.15,1.042-3.659c-0.033-0.209-0.38-1.364-1.107-1.364
			c-0.725,0-1.127,1.093-1.166,1.321c-0.186,1.646,1.01,3.746,1.201,3.702H47.036z M66.27,104.624c-0.221,0-1.234-2.15-1.048-3.659
			c0.036-0.209,0.382-1.364,1.103-1.364c0.73,0,1.138,1.093,1.167,1.321c0.199,1.646-1.006,3.746-1.195,3.702H66.27z
			 M50.688,107.613c0.187,0,1.063-1.897,0.918-3.246c-0.04-0.171-0.354-1.184-0.95-1.184c-0.63,0-1.01,0.959-1.037,1.155
			c-0.165,1.441,0.881,3.274,1.069,3.254V107.613z M62.581,107.613c-0.188,0-1.065-1.897-0.908-3.246
			c0.034-0.171,0.35-1.184,0.944-1.184c0.622,0,1.005,0.959,1.036,1.155c0.155,1.441-0.882,3.274-1.072,3.254V107.613z
			 M47.854,94.991c0.251-0.021,1.469-2.594,1.29-4.463c-0.034-0.245-0.475-1.645-1.32-1.645c-0.853,0-1.391,1.334-1.415,1.574
			c-0.221,1.993,1.193,4.512,1.48,4.512L47.854,94.991z M65.382,94.991c-0.25-0.021-1.469-2.594-1.287-4.463
			c0.031-0.245,0.474-1.645,1.319-1.645c0.855,0,1.388,1.334,1.42,1.574c0.221,1.993-1.198,4.512-1.491,4.512L65.382,94.991z
			 M56.731,95.89c-0.262-0.022-1.477-2.597-1.296-4.459c0.033-0.229,0.476-1.654,1.331-1.654c0.847,0,1.377,1.323,1.413,1.594
			c0.218,2.001-1.201,4.497-1.487,4.497L56.731,95.89z M56.441,104.453c-0.181,0-1.125-2.021-0.973-3.438
			c0.032-0.158,0.349-1.249,1.037-1.249c0.668,0,1.075,1.03,1.107,1.227c0.188,1.54-0.95,3.495-1.144,3.461H56.441z M52.125,90.502
			c0.265-0.044,1.483-2.616,1.303-4.493c-0.038-0.213-0.468-1.636-1.323-1.636c-0.854,0-1.384,1.321-1.417,1.578
			c-0.226,1.992,1.192,4.507,1.481,4.507L52.125,90.502z M61.17,90.502c-0.257-0.044-1.478-2.616-1.296-4.493
			c0.024-0.213,0.479-1.636,1.32-1.636c0.86,0,1.387,1.321,1.423,1.578c0.21,1.992-1.205,4.507-1.477,4.507L61.17,90.502z
			 M51.281,99.338c0.253-0.023,1.361-2.405,1.161-4.118c-0.021-0.178-0.401-1.504-1.219-1.504c-0.789,0-1.286,1.211-1.328,1.482
			c-0.221,1.838,1.11,4.182,1.355,4.14H51.281z M62.022,99.338c-0.26-0.023-1.354-2.405-1.17-4.118
			c0.026-0.178,0.41-1.504,1.229-1.504c0.781,0,1.292,1.211,1.316,1.482c0.224,1.838-1.102,4.182-1.344,4.14H62.022z"/>
		<path fill="#201F21" d="M52.041,75.018l6.567,7.653l6.507-7.856l14.983,6.491c0,0-1.556,5.274-2.936,8.573
			c-1.292,3.073,2.189,5.112,2.118,5.809c-0.053,0.703-0.396,1.666-0.396,1.772c0,0.13,1.069,0.471,0.934,0.857
			c-0.128,0.399-0.335,0.744-0.335,0.744s-10.389,2.945-21.897,2.841c-9.846-0.071-18.8-2.801-18.8-2.801s-0.324-0.663,0-1.205
			c0.327-0.543,0.667-1.049,0.667-1.049s-1.067-0.649-0.4-1.325c0.672-0.651-3.617-5.021-3.014-7.151
			c0.6-2.142,4.674-12.744,4.674-12.744L52.041,75.018z"/>
		<path fill="#414143" d="M70.291,75.288c0,0-8.009,7.646-17.355,13.083c-9.364,5.413-15.415,6.985-15.415,6.985
			s-0.35,3.09,0.021,3.968c0.359,0.87,3.234,1.582,3.429,1.123c0.203-0.453,9.342-4.126,18.812-10.218
			c9.467-6.111,17.213-14.941,17.213-14.941H70.291z"/>
		<path fill="#201F21" d="M40.064,98.039c0,0,0.099,9.346,3.12,15.86c3.029,6.514,5.477,3.018,10.797,1.684
			c5.318-1.327,6.359,0,6.453-3.484c0.089-3.501,0-4.772,0-4.772s13.759,0.487,16.135-2.171c2.397-2.649,1.938-6.204,1.938-6.204
			L40.064,98.039z"/>
		<path fill="#414143" d="M56.363,97.896c0,0-4.092,1.067-4.924,2.479c-0.837,1.409-0.46,3.555-0.46,3.555s4.881-0.691,6.53-1.211
			c1.646-0.543,1.877-2.883,1.877-2.883s1.397,3.02,3.467,3.555c2.064,0.52,4.866,0,4.866,0s-1.489-4.217-3.547-4.984
			C62.107,97.624,56.363,97.896,56.363,97.896"/>
		<path fill="#201F21" d="M74.962,111.916c-3.878,0.229-15.036-0.975-15.728-5.422c-0.798-5.137,5.039-7.557,10.439-7.859
			c5.398-0.305,10.074,2.458,10.307,5.704C80.223,107.601,82.98,111.425,74.962,111.916"/>
	</g>
	<polygon fill="#201F21" points="56.379,80.493 58.404,78.566 60.742,80.537 61.361,79.729 58.469,77.439 55.521,79.729 	"/>
	<g>
		<path fill="#414143" d="M39.576,92.145c0,0,9.435,1.441,12.528,2.51c3.094,1.053,6.996,1.894,6.996,1.894
			s5.793-1.877,10.559-3.337c5.595-1.716,7.845-2.178,7.845-2.178s2.34,1.45,2.573,3.132c0.228,1.658,0.093,2.054,0.093,2.054
			s2.09,1.948,0.705,2.397c-1.391,0.445-2.332,1.077-2.332,1.077s-17.384-0.236-19.522-0.158
			c-2.129,0.108-18.842-0.055-18.842-0.055s-2.487,0.181-2.281-1.441l0.224-1.62C38.121,96.419,35.437,93.015,39.576,92.145"/>
		<path fill="#9F8A73" d="M41.057,45.712c1.57-1.527,6.039,0.026,11.176-0.461c5.381-0.521,11.491-2.957,15.732-1.346
			c6.176,2.313,15.169,12.399,19.952,24.123c1.953,4.781-0.063,9.655-5.031,12.038c-13.724,6.506-32.633,9.076-45.805,8.404
			c-6.469-0.335-9.782-5.632-9.347-11.395c1.078-14.163,3.721-22.14,13.293-31.307L41.057,45.712z"/>
		<path fill="#837460" d="M41.73,45.964c1.48-1.345,5.729-2.486,10.57-2.921c5.105-0.501,10.867-0.271,14.865,1.155
			c5.827,2.052,14.713,14.397,19.186,24.929c1.816,4.303-0.098,8.688-4.813,10.839c-13.003,5.915-30.89,8.349-43.315,7.791
			c-6.143-0.258-9.223-5.022-8.787-10.195c1.07-12.75,3.165-23.254,12.262-31.564L41.73,45.964z"/>
		<path fill="#9F8A73" d="M45.915,47.659c-3.019-1.163-13.247,0.535-20.702,1.176c-6.205,0.558-8.573-0.819-8.352,0.207
			c1.202,5.338,15.863,15.305,20.206,10.454c2.746-3.096,3.096-0.828,7.178-6.654c1.042-1.487,2.779-4.779,1.697-5.183H45.915z
			 M59.324,46.146c2.987-1.998,15.42-2.226,22.727-3.879c3.934-0.859,5.311-3.056,5.228-1.521
			c-0.288,5.457-11.525,18.786-16.806,14.982c-3.342-2.413-3.191-0.122-8.411-4.888c-1.325-1.191-3.711-4.024-2.737-4.674V46.146z"
			/>
		<path fill="#837460" d="M45.915,47.659c-3.019-1.163-13.247,0.535-20.702,1.176c-6.205,0.558-8.573-0.819-8.345,0.207
			c0.122,0.58,0.407,1.186,0.816,1.83c8.145,1.699,16.399-0.473,24.484,4.601c0.57-0.614,1.264-1.476,2.076-2.631
			c1.042-1.487,2.779-4.779,1.697-5.183H45.915z M87.147,41.709c-7.114,4.201-16.146,3.046-21.618,11.765
			c-0.82-0.474-1.899-1.27-3.44-2.676c-1.313-1.176-3.71-4.01-2.726-4.651c2.982-1.998,15.413-2.226,22.719-3.879
			c3.924-0.859,5.318-3.056,5.227-1.521C87.278,41.024,87.236,41.373,87.147,41.709"/>
		<path fill="#FFFFFF" d="M38.438,49.913c7.156-0.807,13.621,4.488,14.401,11.809c0.8,7.307-4.373,13.913-11.53,14.728
			c-7.155,0.81-13.613-4.472-14.408-11.79C26.107,57.349,31.288,50.741,38.438,49.913"/>
		<path fill="#FFFFFF" d="M69.94,46.029c7.333-0.832,13.945,4.588,14.758,12.079c0.811,7.503-4.489,14.252-11.82,15.086
			c-7.328,0.836-13.937-4.573-14.756-12.072C57.319,53.628,62.617,46.85,69.94,46.029"/>
		<path fill="#96C93F" d="M69.635,43.011c8.401-0.924,15.953,5.247,16.859,13.845c0.925,8.608-5.134,16.325-13.52,17.252
			c-8.406,0.938-15.962-5.247-16.882-13.835C55.179,51.681,61.227,43.951,69.635,43.011"/>
		<path fill="#FFFFFF" d="M70.049,46.917c6.288-0.706,11.955,3.924,12.639,10.39c0.703,6.442-3.834,12.241-10.157,12.938
			c-6.3,0.71-11.964-3.92-12.656-10.398C59.188,53.409,63.712,47.629,70.049,46.917"/>
		<path d="M70.385,50.032c4.633-0.505,8.789,2.903,9.285,7.63c0.518,4.731-2.824,8.975-7.456,9.504
			c-4.631,0.505-8.783-2.912-9.282-7.634C62.425,54.801,65.761,50.556,70.385,50.032"/>
		<path fill="#96C93F" d="M38.09,46.567c8.409-0.936,15.963,5.237,16.879,13.84c0.91,8.589-5.134,16.313-13.534,17.247
			c-8.412,0.928-15.955-5.241-16.871-13.854C23.649,55.214,29.683,47.48,38.09,46.567"/>
	</g>
	<polygon fill="#FFFFFF" points="65.164,50.032 62.136,53.902 70.081,57.954 	"/>
	<g>
		<path fill="#FFFFFF" d="M38.509,50.456c6.282-0.706,11.953,3.924,12.653,10.396c0.689,6.442-3.846,12.225-10.171,12.938
			c-6.296,0.71-11.958-3.924-12.652-10.406C27.648,56.94,32.176,51.163,38.509,50.456"/>
		<path d="M38.848,53.583c4.642-0.519,8.783,2.888,9.283,7.619c0.517,4.746-2.827,8.987-7.457,9.504
			c-4.619,0.498-8.773-2.905-9.278-7.643C30.892,58.34,34.218,54.087,38.848,53.583"/>
	</g>
	<polygon fill="#FFFFFF" points="34.036,53.514 30.981,57.409 38.924,61.431 	"/>
	<path fill="#837460" d="M30.981,48.258c2.261-2.133,13.614-4.21,21.077-4.923c7.834-0.735,18.785-2.411,24.95-0.186
		c4.267,0.777,6.577,4.467,6.999,4.688c-5.262,1.785-20.378,4.902-22.479,11.716c-3.15,10.184-3.339,13.076-2.801,23.577
		l-2.019,0.274c-1.512-10.296-3.589-16.931-7.835-22.202c-5.193-6.438-19.406-3.654-24.922-4.267
		C24.468,54.736,27.695,49.353,30.981,48.258"/>
	<path fill="#FFCC07" d="M57.924,78.845c0.979-0.156,5.443-5.664,4.099-10.743c-0.157-0.623-4.221-3.54-5.798-3.356
		c-1.58,0.167-4.69,3.609-4.72,4.409c-0.286,5.696,5.411,9.833,6.393,9.69H57.924z"/>
	<path fill="#837460" d="M85.449,76.689c-8.342,6.045-14.605,7.563-26.003,11.974c-2.04,0.799-4.492,1.555-3.296,4.987
		c1.005,2.933,14.513,0.605,15.446,0.894c23.521,7.048,21.316-1.443,20.089-3.236c5.791,0.641,18.133,1.344,21.43-5.928
		c1.447-3.16-2.665-6.563-6.639-7.307c4.131-0.199,11.522-1.781,13.066-6.298c2.226-6.515-4.565-7.864-10.01-6.312
		c3.111-1.003,4.756-5.025,5.412-7.994c1.734-7.906-3.589-13.807-5.985-9.334c-4.929,9.213-11.417,19.872-23.479,28.584
		L85.449,76.689z"/>
	<path fill="#A99781" d="M108.209,49.585c-4.845,8.854-11.301,18.864-22.688,27.135c-8.346,6.059-14.604,7.563-26.002,11.964
		l-0.377,0.137c-0.479,0.609-0.671,1.455-0.285,2.532c0.91,2.588,13.881,0.271,14.726,0.521c20.71,6.215,14.985-1.825,13.915-3.403
		c5.094,0.534,18.695,1.448,21.333-4.409c1.263-2.763-6.943-4.375-11.262-6.443c3.62-0.146,15.018-2.09,16.363-6.115
		c1.962-5.729-5.416-5.235-10.196-3.889c2.769-0.92,7.464-5.796,8.026-8.433c1.196-5.443-1.381-9.789-3.585-9.597H108.209z"/>
	<path fill="#9F8A73" d="M106.637,52.453c-4.688,8.105-10.895,16.896-21.095,24.267c-8.338,6.059-14.604,7.563-25.993,11.964
		c-0.281,4.389,13.215,1.46,13.562,1.565c16.627,3.88,11.719-1.844,6.838-3.968c5.095,0.576,19.886,2.226,22.715-2.374
		c1.615-2.608-9.718-4.741-14.032-6.797c3.623-0.198,16.208-2.354,18.525-5.872c1.974-2.944-5.396-1.38-11.54-0.283
		c6.548-3.383,10.71-9.39,11.271-12.038c0.531-2.446,0.316-4.724-0.313-6.464H106.637z"/>
	<path fill="#201F21" d="M45.037,122.574c0,0,2.324-1.055,7.665-3.109c5.342-2.054,8.859-2.903,8.859-2.903
		s-1.127-2.313-1.695-2.366c-0.563-0.058-4.309,1.081-8.415,2.579c-4.106,1.52-7.537,3.235-7.537,3.235
		S43.199,121.862,45.037,122.574"/>
	<path fill="#201F21" d="M80.852,114.326c0,0-2.401,0.573-7.702,2.179c-5.309,1.597-8.516,3.066-8.516,3.066
		s-0.482-2.528-0.065-2.932c0.397-0.375,3.942-1.756,7.988-3.041c4.024-1.279,7.674-2.004,7.674-2.004
		S81.854,112.664,80.852,114.326"/>
	<g>
		<polygon fill="#F180B2" points="82.494,33.183 82.847,33.723 80.571,33.249 81.441,34.576 83.719,35.05 		"/>
		<polygon fill="#F180B2" points="81.347,31.431 79.071,30.957 79.939,32.283 82.215,32.757 		"/>
		<polygon fill="#F180B2" points="89.588,47.005 90.456,48.332 92.731,48.806 93.363,49.771 91.088,49.297 91.958,50.626 
			94.233,51.099 91.311,46.636 91.861,47.479 		"/>
		<polygon fill="#F180B2" points="86.184,38.814 85.853,38.307 83.576,37.833 84.445,39.161 86.723,39.636 		"/>
		<polygon fill="#F180B2" points="93.483,52.953 93.459,52.917 95.737,53.392 94.867,52.064 92.591,51.59 		"/>
		<polygon fill="#F180B2" points="85.219,37.342 84.754,36.631 83.892,35.316 84.349,36.016 82.073,35.541 82.945,36.868 		"/>
		<polygon fill="#F180B2" points="96.367,54.356 94.093,53.882 94.963,55.21 97.237,55.685 97.352,55.858 96.192,54.088 
			96.187,54.079 96.162,54.04 95.855,53.572 		"/>
		<polygon fill="#F180B2" points="95.539,56.091 96.647,57.782 98.022,56.881 97.872,56.648 95.595,56.175 		"/>
		<polygon fill="#F180B2" points="86.582,42.418 86.666,42.547 87.346,43.583 87.452,43.747 89.727,44.222 90.361,45.187 
			88.082,44.71 87.844,44.347 89,46.11 88.952,46.038 91.231,46.514 88.857,42.895 		"/>
		<polygon fill="#F180B2" points="85.948,41.454 88.225,41.929 88.01,41.6 87.376,40.632 87.37,40.62 87.354,40.601 85.078,40.126 
			85.91,41.394 85.917,41.404 		"/>
		<path fill="#EE589F" d="M98.408,56.63l-0.386,0.251l-1.375,0.901l-0.385,0.252l0.864,1.32l2.27,3.462l0.188,0.288
			c0.577-0.709,1.133-1.419,1.67-2.131l-0.403-0.616l-0.339-0.517l-1.659-2.531L98.408,56.63z"/>
		<polygon fill="#FFFFFF" points="82.494,33.183 82.215,32.757 82.215,32.757 79.939,32.283 79.938,32.282 80.569,33.247 
			80.571,33.249 82.847,33.723 		"/>
		<polygon fill="#FFFFFF" points="83.892,35.316 83.719,35.05 83.719,35.05 81.441,34.576 81.441,34.576 82.073,35.541 
			82.073,35.541 84.349,36.016 		"/>
		<polygon fill="#FFFFFF" points="85.853,38.307 85.853,38.308 85.221,37.342 85.219,37.342 82.945,36.868 82.943,36.868 
			83.576,37.833 83.576,37.833 		"/>
		<polygon fill="#FFFFFF" points="87.356,40.601 86.723,39.636 86.723,39.636 84.445,39.161 84.445,39.161 85.076,40.125 
			85.078,40.126 87.354,40.601 		"/>
		<polygon fill="#FFFFFF" points="85.948,41.454 85.946,41.453 86.58,42.418 86.582,42.418 88.857,42.895 88.859,42.895 
			88.227,41.929 88.225,41.929 		"/>
		<polygon fill="#FFFFFF" points="87.844,44.347 88.082,44.71 90.361,45.187 89.727,44.222 87.452,43.747 87.45,43.747 		"/>
		<polygon fill="#FFFFFF" points="89,46.11 89.584,47.005 89.588,47.005 91.861,47.479 91.311,46.636 91.231,46.514 91.231,46.514 
			88.952,46.038 		"/>
		<polygon fill="#FFFFFF" points="91.088,49.297 91.088,49.297 93.363,49.771 92.731,48.806 90.456,48.332 90.456,48.332 		"/>
		<polygon fill="#FFFFFF" points="91.956,50.625 92.589,51.59 92.591,51.59 94.867,52.064 94.867,52.064 94.233,51.099 
			94.233,51.099 91.958,50.626 		"/>
		<polygon fill="#FFFFFF" points="93.483,52.953 94.093,53.882 94.093,53.882 96.367,54.356 95.855,53.572 95.737,53.392 
			95.737,53.392 93.459,52.917 		"/>
		<polygon fill="#FFFFFF" points="95.147,55.494 95.176,55.535 95.182,55.544 95.539,56.091 95.595,56.175 97.872,56.648 
			97.873,56.648 97.352,55.858 97.237,55.685 94.963,55.21 94.963,55.21 		"/>
		<g>
			<path fill="#F180B2" d="M75.963,29.924c0.754,1.865,1.914,3.208,3.689,2.673c0.349-0.104,0.72-0.274,1.123-0.537
				c0.396-0.263,0.705-0.535,0.939-0.816c0.368-0.433,0.551-0.882,0.588-1.343c0.063-0.847-0.368-1.72-1.063-2.555
				c-0.151-0.182-0.316-0.363-0.491-0.541c0.229,0.097,0.452,0.183,0.675,0.255c1.95,0.649,3.698,0.391,4.227-2.152
				c0.271-1.296,0.002-2.165-0.58-2.74c-0.697-0.686-1.859-0.94-3.164-0.955c2.201-0.892,3.675-2.352,2.182-4.722
				c-0.02-0.03-0.031-0.059-0.052-0.088c-1.585-2.422-3.538-1.654-5.254,0.024c0.91-2.164,0.922-4.211-1.729-4.854
				c-0.057-0.013-0.111-0.032-0.174-0.046c-1.548-0.321-2.484,0.126-3.033,0.972c-0.459,0.704-0.647,1.684-0.656,2.773
				c-0.905-2.229-2.388-3.72-4.813-2.13c-1.596,1.045-1.808,2.246-1.287,3.438c0.271,0.615,0.739,1.229,1.308,1.813
				c-2.208-0.931-4.304-0.931-4.895,1.902c-0.357,1.725,0.226,2.7,1.268,3.214c0.671,0.331,1.536,0.468,2.476,0.476
				c-2.228,0.906-3.718,2.388-2.13,4.813c1.588,2.423,3.535,1.653,5.255-0.022c-0.868,2.058-0.929,4.016,1.348,4.754
				c0.168,0.056,0.351,0.104,0.548,0.146C75.106,34.264,75.935,32.328,75.963,29.924z"/>
			<path fill="#F8C9DD" d="M73.784,21.39c0.146-0.098,0.309-0.153,0.472-0.189c-0.586-2.288-1.959-6.462-3.97-5.146
				c-2.008,1.316,1.268,4.242,3.133,5.692C73.521,21.612,73.636,21.486,73.784,21.39z"/>
			<path fill="#F8C9DD" d="M75.341,21.379c1.202-2.033,3.179-5.952,0.834-6.442c-2.354-0.489-2.107,3.895-1.816,6.238
				C74.701,21.124,75.047,21.196,75.341,21.379z"/>
			<path fill="#F8C9DD" d="M75.786,21.807c0.097,0.147,0.151,0.309,0.191,0.471c2.29-0.584,6.463-1.957,5.148-3.968
				c-1.319-2.008-4.246,1.27-5.699,3.133C75.563,21.543,75.689,21.657,75.786,21.807z"/>
			<path fill="#F8C9DD" d="M75.798,23.364c2.036,1.206,5.951,3.182,6.442,0.834c0.488-2.351-3.896-2.106-6.24-1.814
				C76.052,22.726,75.98,23.071,75.798,23.364z"/>
			<path fill="#F8C9DD" d="M75.366,23.811c-0.146,0.097-0.309,0.15-0.471,0.189c0.588,2.29,1.962,6.464,3.969,5.146
				c2.011-1.314-1.265-4.243-3.133-5.694C75.632,23.588,75.518,23.713,75.366,23.811z"/>
			<path fill="#F8C9DD" d="M74.789,24.023c-0.34,0.052-0.688-0.019-0.979-0.202c-1.208,2.035-3.178,5.954-0.831,6.443
				C75.329,30.752,75.081,26.371,74.789,24.023z"/>
			<path fill="#F8C9DD" d="M73.361,23.395c-0.094-0.148-0.151-0.312-0.186-0.476c-2.293,0.589-6.46,1.965-5.146,3.972
				c1.316,2.007,4.237-1.268,5.688-3.136C73.587,23.657,73.462,23.543,73.361,23.395z"/>
			<path fill="#F8C9DD" d="M73.358,21.834c-2.036-1.205-5.957-3.18-6.448-0.832c-0.488,2.353,3.896,2.105,6.24,1.811
				C73.099,22.474,73.173,22.125,73.358,21.834z"/>
			<path fill="#FFF100" d="M74.789,24.023c0.037-0.006,0.069-0.017,0.106-0.023c0.162-0.039,0.325-0.093,0.471-0.189
				c0.151-0.098,0.266-0.223,0.365-0.358c0.023-0.03,0.046-0.057,0.066-0.088c0.183-0.293,0.254-0.639,0.202-0.98
				c-0.006-0.035-0.014-0.07-0.022-0.106c-0.04-0.162-0.095-0.323-0.191-0.471c-0.097-0.149-0.223-0.264-0.359-0.364
				c-0.029-0.021-0.058-0.042-0.086-0.063c-0.294-0.183-0.64-0.255-0.982-0.204c-0.034,0.006-0.065,0.016-0.103,0.025
				c-0.163,0.036-0.326,0.092-0.472,0.189c-0.148,0.097-0.263,0.223-0.365,0.356c-0.021,0.031-0.046,0.056-0.061,0.088
				c-0.186,0.291-0.26,0.64-0.208,0.979c0.006,0.038,0.017,0.07,0.025,0.106c0.034,0.164,0.092,0.327,0.186,0.476
				c0.101,0.148,0.226,0.263,0.357,0.36c0.031,0.023,0.06,0.046,0.091,0.066C74.102,24.005,74.449,24.075,74.789,24.023z"/>
		</g>
		<path fill="#C96B96" d="M81.838,32.182L81.838,32.182l-0.437-0.667c-0.156,0.188-0.361,0.37-0.626,0.545
			c-0.269,0.175-0.517,0.287-0.748,0.357l0.422,0.645l0,0c0.286-0.076,0.565-0.18,0.775-0.318
			C81.413,32.619,81.628,32.416,81.838,32.182z"/>
	</g>
</g>
</svg>
